<svg xmlns="http://www.w3.org/2000/svg" viewBox="0 0 24 24" preserveAspectRatio="xMidYMid meet" focusable="false" class="style-scope yt-icon" style="pointer-events: none; display: block; width: 100%; height: 100%;"><g class="style-scope yt-icon"><path fill-rule="evenodd" clip-rule="evenodd" d="M18.71 6C20.13 7.59 21 9.69 21 12c0 4.97-4.03 9-9 9-2.31 0-4.41-.87-6-2.29L18.71 6zM3 12c0-4.97 4.03-9 9-9 2.31 0 4.41.87 6 2.29L5.29 18C3.87 16.41 3 14.31 3 12zm9-10c5.52 0 10 4.48 10 10s-4.48 10-10 10S2 17.52 2 12 6.48 2 12 2z" class="style-scope yt-icon"></path></g></svg>